# xmcd
#
# Track frame offsets:
#	150
#	27537
#	52782
#	73989
#	98467
#	124050
#	145606
#	170847
#	192743
#	223421
#	241967
#	266394
#	283750
#
# Disc length: 4027 seconds
#
# Revision: 4
# Processed by: cddbd v1.5.2PL0 Copyright (c) Steve Scherf et al.
# Submitted via: EZCDAudioConverter 8.0.2.1
#
DISCID=cb0fb90d
DTITLE=Various Artist - st. Châu Kỳ.  Giọt Lệ Đài Trang
DYEAR=2005
DGENRE=Pop
TTITLE0=Chế Linh - Túy ca
TTITLE1=Như Quỳnh, Trường Vũ - Con đường xưa em đi, Xin anh giữ trọn tình quê
TTITLE2=Tâm Đoan - Đàn không tiếng hát
TTITLE3=Thái Châu - Xin lam người tình cô đơn
TTITLE4=Hoàng Oanh - Sao chưa thấy hồi âm
TTITLE5=Trường Vũ - Tiếng ca đó về đâu
TTITLE6=Phương Hồng Quế, Trúc Mai - LK Khuya nay anh đi rồi, Em không buồn nữa
TTITLE6=chị ơi, Giọt Lệ Đài Trang, Đừng nói xa nhau
TTITLE7=Quang Lê - Giọt Lệ Đài Trang
TTITLE8=Như Quỳnh - Nhớ
TTITLE9=Quang Lê - Hương Giang tôi còn chờ
TTITLE10=Hương Lan - Lá vàng khóc lá xanh rơi
TTITLE11=Nguyễn Hưng - Phượng tìm Hoàng
TTITLE12=Hợp Ca - LK Quốc Dũng, Tùng Giang, Châu Kỳ
EXTD=
EXTT0=
EXTT1=
EXTT2=
EXTT3=
EXTT4=
EXTT5=
EXTT6=
EXTT7=
EXTT8=
EXTT9=
EXTT10=
EXTT11=
EXTT12=
PLAYORDER=
